<svg id="visual" viewBox="0 0 960 540" width="1920" height="1080" xmlns="http://www.w3.org/2000/svg" xmlns:xlink="http://www.w3.org/1999/xlink" version="1.1"><rect x="0" y="0" width="960" height="540" fill="#001220"></rect><path d="M0 329L22.8 330C45.7 331 91.3 333 137 333.5C182.7 334 228.3 333 274 342.2C319.7 351.3 365.3 370.7 411.2 368.8C457 367 503 344 548.8 339.3C594.7 334.7 640.3 348.3 686 357.5C731.7 366.7 777.3 371.3 823 369.3C868.7 367.3 914.3 358.7 937.2 354.3L960 350L960 541L937.2 541C914.3 541 868.7 541 823 541C777.3 541 731.7 541 686 541C640.3 541 594.7 541 548.8 541C503 541 457 541 411.2 541C365.3 541 319.7 541 274 541C228.3 541 182.7 541 137 541C91.3 541 45.7 541 22.8 541L0 541Z" fill="#fa7268"></path><path d="M0 359L22.8 361.7C45.7 364.3 91.3 369.7 137 371.5C182.7 373.3 228.3 371.7 274 376.7C319.7 381.7 365.3 393.3 411.2 397.5C457 401.7 503 398.3 548.8 401.5C594.7 404.7 640.3 414.3 686 413.8C731.7 413.3 777.3 402.7 823 392.8C868.7 383 914.3 374 937.2 369.5L960 365L960 541L937.2 541C914.3 541 868.7 541 823 541C777.3 541 731.7 541 686 541C640.3 541 594.7 541 548.8 541C503 541 457 541 411.2 541C365.3 541 319.7 541 274 541C228.3 541 182.7 541 137 541C91.3 541 45.7 541 22.8 541L0 541Z" fill="#ef5f67"></path><path d="M0 438L22.8 435.2C45.7 432.3 91.3 426.7 137 425C182.7 423.3 228.3 425.7 274 431.5C319.7 437.3 365.3 446.7 411.2 444.5C457 442.3 503 428.7 548.8 429.2C594.7 429.7 640.3 444.3 686 450.2C731.7 456 777.3 453 823 449.5C868.7 446 914.3 442 937.2 440L960 438L960 541L937.2 541C914.3 541 868.7 541 823 541C777.3 541 731.7 541 686 541C640.3 541 594.7 541 548.8 541C503 541 457 541 411.2 541C365.3 541 319.7 541 274 541C228.3 541 182.7 541 137 541C91.3 541 45.7 541 22.8 541L0 541Z" fill="#e34c67"></path><path d="M0 482L22.8 480.2C45.7 478.3 91.3 474.7 137 472.7C182.7 470.7 228.3 470.3 274 468.2C319.7 466 365.3 462 411.2 463.8C457 465.7 503 473.3 548.8 472.7C594.7 472 640.3 463 686 458.7C731.7 454.3 777.3 454.7 823 456.7C868.7 458.7 914.3 462.3 937.2 464.2L960 466L960 541L937.2 541C914.3 541 868.7 541 823 541C777.3 541 731.7 541 686 541C640.3 541 594.7 541 548.8 541C503 541 457 541 411.2 541C365.3 541 319.7 541 274 541C228.3 541 182.7 541 137 541C91.3 541 45.7 541 22.8 541L0 541Z" fill="#d53867"></path><path d="M0 498L22.8 497.2C45.7 496.3 91.3 494.7 137 495.3C182.7 496 228.3 499 274 500C319.7 501 365.3 500 411.2 496.7C457 493.3 503 487.7 548.8 485.2C594.7 482.7 640.3 483.3 686 488.5C731.7 493.7 777.3 503.3 823 506.2C868.7 509 914.3 505 937.2 503L960 501L960 541L937.2 541C914.3 541 868.7 541 823 541C777.3 541 731.7 541 686 541C640.3 541 594.7 541 548.8 541C503 541 457 541 411.2 541C365.3 541 319.7 541 274 541C228.3 541 182.7 541 137 541C91.3 541 45.7 541 22.8 541L0 541Z" fill="#c62368"></path></svg>